<svg width="30" height="24" viewBox="0 0 30 24" fill="none" xmlns="http://www.w3.org/2000/svg">
<path id="Vector" d="M15.6837 0.148973C16.2827 0.42754 16.6681 1.03825 16.6681 1.71324V22.2844C16.6681 22.9594 16.2827 23.5701 15.6837 23.8487C15.0846 24.1272 14.3815 24.0147 13.8918 23.5647L6.86518 17.1416H3.33362C1.49492 17.1416 0 15.6041 0 13.7131V10.2846C0 8.39351 1.49492 6.85603 3.33362 6.85603H6.86518L13.8918 0.432897C14.3815 -0.0170967 15.0846 -0.124238 15.6837 0.148973ZM22.1373 7.23102L25.0022 10.1774L27.867 7.23102C28.3566 6.72746 29.1484 6.72746 29.6328 7.23102C30.1172 7.73459 30.1224 8.54886 29.6328 9.04707L26.7679 11.9935L29.6328 14.9398C30.1224 15.4434 30.1224 16.2577 29.6328 16.7559C29.1432 17.2541 28.3514 17.2595 27.867 16.7559L25.0022 13.8095L22.1373 16.7559C21.6477 17.2595 20.856 17.2595 20.3716 16.7559C19.8871 16.2523 19.8819 15.4381 20.3716 14.9398L23.2364 11.9935L20.3716 9.04707C19.8819 8.5435 19.8819 7.72923 20.3716 7.23102C20.8612 6.73282 21.6529 6.72746 22.1373 7.23102Z" fill="white"/>
</svg>
