<svg width="27" height="29" viewBox="0 0 27 29" fill="none" xmlns="http://www.w3.org/2000/svg">
<path id="Vector" d="M24.3 0H8.1C6.615 0 5.4 1.305 5.4 2.9V20.3C5.4 21.895 6.615 23.2 8.1 23.2H24.3C25.785 23.2 27 21.895 27 20.3V2.9C27 1.305 25.785 0 24.3 0ZM20.25 7.25H17.55V15.0365C17.55 16.878 16.335 18.5745 14.634 18.8065C12.3525 19.14 10.4355 16.994 10.854 14.529C11.124 12.934 12.447 11.7015 13.959 11.6C14.8095 11.542 15.579 11.832 16.2 12.3395V5.8C16.2 5.0025 16.8075 4.35 17.55 4.35H20.25C20.9925 4.35 21.6 5.0025 21.6 5.8C21.6 6.5975 20.9925 7.25 20.25 7.25ZM1.35 5.8C0.6075 5.8 0 6.4525 0 7.25V26.1C0 27.695 1.215 29 2.7 29H20.25C20.9925 29 21.6 28.3475 21.6 27.55C21.6 26.7525 20.9925 26.1 20.25 26.1H4.05C3.3075 26.1 2.7 25.4475 2.7 24.65V7.25C2.7 6.4525 2.0925 5.8 1.35 5.8Z" fill="#81F0FF"/>
</svg>
