<svg width="27" height="29" viewBox="0 0 27 29" fill="none" xmlns="http://www.w3.org/2000/svg">
<rect width="27" height="29" fill="#1E1E1E"/>
<g id="MacBook Pro 14&#34; - 1" clip-path="url(#clip0_0_1)">
<rect width="1512" height="982" transform="translate(-30 -19)" fill="black"/>
<path id="Vector" d="M15.1875 6.18971V19.9371C15.1875 20.9396 14.4334 21.7496 13.5 21.7496C12.5666 21.7496 11.8125 20.9396 11.8125 19.9371V6.18971L7.9418 10.3473C7.28262 11.0554 6.21211 11.0554 5.55293 10.3473C4.89375 9.63929 4.89375 8.48943 5.55293 7.78139L12.3029 0.531032C12.9621 -0.177011 14.0326 -0.177011 14.6918 0.531032L21.4418 7.78139C22.101 8.48943 22.101 9.63929 21.4418 10.3473C20.7826 11.0554 19.7121 11.0554 19.0529 10.3473L15.1875 6.18971ZM3.375 19.9371H10.125C10.125 21.9366 11.6385 23.5622 13.5 23.5622C15.3615 23.5622 16.875 21.9366 16.875 19.9371H23.625C25.4865 19.9371 27 21.5627 27 23.5622V25.3748C27 27.3743 25.4865 29 23.625 29H3.375C1.51348 29 0 27.3743 0 25.3748V23.5622C0 21.5627 1.51348 19.9371 3.375 19.9371ZM22.7812 25.828C23.1169 25.828 23.4388 25.6847 23.6762 25.4298C23.9135 25.1749 24.0469 24.8291 24.0469 24.4685C24.0469 24.108 23.9135 23.7622 23.6762 23.5073C23.4388 23.2523 23.1169 23.1091 22.7812 23.1091C22.4456 23.1091 22.1237 23.2523 21.8863 23.5073C21.649 23.7622 21.5156 24.108 21.5156 24.4685C21.5156 24.8291 21.649 25.1749 21.8863 25.4298C22.1237 25.6847 22.4456 25.828 22.7812 25.828Z" fill="#81F0FF"/>
</g>
<defs>
<clipPath id="clip0_0_1">
<rect width="1512" height="982" fill="white" transform="translate(-30 -19)"/>
</clipPath>
</defs>
</svg>
